<?xml version="1.0" encoding="iso-8859-1"?>
<!-- Generator: Adobe Illustrator 19.0.0, SVG Export Plug-In . SVG Version: 6.00 Build 0)  -->
<svg version="1.1" id="Layer_1" xmlns="http://www.w3.org/2000/svg" xmlns:xlink="http://www.w3.org/1999/xlink" x="0px" y="0px"
	 viewBox="0 0 472.626 472.626" style="enable-background:new 0 0 472.626 472.626;" xml:space="preserve">
<g>
	<g>
		<path d="M433.236,334.78c-18.314,0-33.575,12.603-38.006,29.538h-30.917v-86.841c41.058-8.567,68.923-39.779,68.923-80.544
			c0-35.053-22.351-66.166-54.449-77.981c2.855-9.748,3.938-19.889,3.249-31.113c-2.954-48.051-45.785-87.436-95.409-87.83
			c-39.975-0.592-75.126,23.238-89.895,57.896c-14.474-10.832-32.886-16.05-51.495-14.276c-26.88,2.557-50.412,20.38-61.342,46.671
			c-5.218,12.502-4.529,26.387-3.348,34.853c-25.206,14.769-41.157,42.143-41.157,71.778c0,39.976,28.357,71.68,68.923,80.445v86.94
			H77.396c-4.431-16.935-19.692-29.538-38.006-29.538c-21.76,0-39.385,17.625-39.385,39.385c0,21.664,17.625,39.385,39.385,39.385
			c18.314,0,33.575-12.601,38.006-29.538h50.609V279.84c1.182,0,2.363,0.099,3.545,0.099h45.686v115.297
			c-16.935,4.431-29.538,19.692-29.538,38.005c0,21.664,17.625,39.385,39.385,39.385s39.385-17.721,39.385-39.385
			c0-18.313-12.603-33.574-29.538-38.005V279.939h78.769v115.297c-16.935,4.431-29.538,19.692-29.538,38.005
			c0,21.664,17.625,39.385,39.385,39.385s39.385-17.721,39.385-39.385c0-18.313-12.603-33.574-29.538-38.005V279.939h45.686
			c1.182,0,2.363-0.099,3.545-0.099v104.17h50.609c4.431,16.937,19.692,29.538,38.006,29.538c21.76,0,39.385-17.721,39.385-39.385
			C472.621,352.405,454.996,334.78,433.236,334.78z"/>
	</g>
</g>
<g>
</g>
<g>
</g>
<g>
</g>
<g>
</g>
<g>
</g>
<g>
</g>
<g>
</g>
<g>
</g>
<g>
</g>
<g>
</g>
<g>
</g>
<g>
</g>
<g>
</g>
<g>
</g>
<g>
</g>
</svg>
